<svg xmlns="http://www.w3.org/2000/svg" viewBox="0 0 800 500" role="img" aria-label="Taladro atornillador inalámbrico realista junto a una ventana con persiana de aluminio">
  <defs>
    <linearGradient id="bg" x1="0" y1="0" x2="0.3" y2="1"><stop offset="0" stop-color="#FCFCFE"/><stop offset="1" stop-color="#ECEEF3"/></linearGradient>
    <radialGradient id="blob" cx="0.5" cy="0.5" r="0.5"><stop offset="0" stop-color="#FFC400" stop-opacity="0.14"/><stop offset="1" stop-color="#FFC400" stop-opacity="0"/></radialGradient>
    <linearGradient id="frame" x1="0" y1="0" x2="0.35" y2="1"><stop offset="0" stop-color="#30353F"/><stop offset="1" stop-color="#1A1D23"/></linearGradient>
    <linearGradient id="sky" x1="0" y1="0" x2="0" y2="1"><stop offset="0" stop-color="#FFF6DD"/><stop offset="0.6" stop-color="#FFE6A6"/><stop offset="1" stop-color="#FCD173"/></linearGradient>
    <radialGradient id="sun" cx="0.5" cy="0.5" r="0.5"><stop offset="0" stop-color="#FFFFFF" stop-opacity="0.9"/><stop offset="0.6" stop-color="#FFF6D8" stop-opacity="0.3"/><stop offset="1" stop-color="#FFF6D8" stop-opacity="0"/></radialGradient>
    <linearGradient id="lama" x1="0" y1="0" x2="0" y2="1"><stop offset="0" stop-color="#FCE08A"/><stop offset="0.5" stop-color="#F3C246"/><stop offset="1" stop-color="#E0A413"/></linearGradient>
    <linearGradient id="sill" x1="0" y1="0" x2="0" y2="1"><stop offset="0" stop-color="#FEFEFF"/><stop offset="1" stop-color="#E6EAF0"/></linearGradient>
    <linearGradient id="body" x1="0" y1="0" x2="0" y2="1"><stop offset="0" stop-color="#FFD24A"/><stop offset="0.5" stop-color="#FCC21F"/><stop offset="1" stop-color="#E09E00"/></linearGradient>
    <linearGradient id="grip" x1="0" y1="0" x2="0" y2="1"><stop offset="0" stop-color="#2C313B"/><stop offset="1" stop-color="#181B21"/></linearGradient>
    <linearGradient id="chuck" x1="0" y1="0" x2="0" y2="1"><stop offset="0" stop-color="#ECEFF3"/><stop offset="0.5" stop-color="#B9BFC8"/><stop offset="1" stop-color="#878D97"/></linearGradient>
    <clipPath id="glass"><rect x="276" y="86" width="248" height="252" rx="9"/></clipPath>
    <filter id="vsh" x="-50%" y="-50%" width="200%" height="200%"><feDropShadow dx="0" dy="14" stdDeviation="15" flood-color="#141823" flood-opacity="0.20"/></filter>
    <filter id="vshS" x="-60%" y="-60%" width="220%" height="220%"><feDropShadow dx="0" dy="7" stdDeviation="8" flood-color="#141823" flood-opacity="0.18"/></filter>
    <filter id="vshXS" x="-80%" y="-80%" width="260%" height="260%"><feDropShadow dx="0" dy="3" stdDeviation="3.5" flood-color="#141823" flood-opacity="0.22"/></filter>
  </defs>

  <rect width="800" height="500" fill="url(#bg)"/>
  <circle cx="620" cy="110" r="300" fill="url(#blob)"/>

  <g filter="url(#vsh)"><rect x="250" y="55" width="300" height="330" rx="22" fill="url(#frame)"/></g>
  <rect x="242" y="38" width="316" height="30" rx="13" fill="#262A33"/>
  <rect x="276" y="86" width="248" height="252" rx="9" fill="url(#sky)"/>
  <g clip-path="url(#glass)">
    <circle cx="452" cy="250" r="112" fill="url(#sun)"/>
    <rect x="276" y="88" width="248" height="17" rx="5" fill="url(#lama)"/>
    <rect x="276" y="109" width="248" height="17" rx="5" fill="url(#lama)"/>
    <rect x="276" y="130" width="248" height="17" rx="5" fill="url(#lama)"/>
    <rect x="276" y="151" width="248" height="17" rx="5" fill="url(#lama)"/>
    <rect x="276" y="172" width="248" height="17" rx="5" fill="url(#lama)"/>
    <rect x="276" y="193" width="248" height="17" rx="5" fill="url(#lama)"/>
    <rect x="276" y="214" width="248" height="20" rx="5" fill="url(#lama)"/>
    <rect x="276" y="236" width="248" height="4" fill="#A9750A" opacity="0.4"/>
    <polygon points="262,86 486,86 360,338 262,338" fill="#FFFFFF" opacity="0.10"/>
  </g>
  <rect x="266" y="80" width="12" height="262" rx="4" fill="#343945"/>
  <rect x="522" y="80" width="12" height="262" rx="4" fill="#282D36"/>
  <rect x="250" y="55" width="300" height="330" rx="22" fill="none" stroke="#3C424E" stroke-width="1.5" opacity="0.5"/>
  <path d="M268 84 h252" stroke="#FFFFFF" stroke-opacity="0.06" stroke-width="2"/>

  <g filter="url(#vshS)">
    <rect x="205" y="372" width="390" height="22" rx="6" fill="url(#sill)"/>
    <rect x="205" y="393" width="390" height="12" rx="4" fill="#D5DAE2"/>
  </g>

  <ellipse cx="445" cy="392" rx="125" ry="15" fill="#11141C" opacity="0.13"/>

  <g filter="url(#vshXS)"><circle cx="300" cy="384" r="5" fill="#3A3F49"/></g>
  <g filter="url(#vshXS)"><circle cx="326" cy="390" r="5" fill="#3A3F49"/></g>

  <g filter="url(#vsh)" transform="translate(384,232) rotate(-6) scale(1.45)">
    <rect x="58" y="36" width="40" height="58" rx="11" fill="url(#grip)"/>
    <rect x="52" y="84" width="52" height="22" rx="9" fill="#20242C"/>
    <rect x="56" y="103" width="44" height="6" rx="3" fill="#13161B"/>
    <path d="M62 40 q-10 6 -8 24" stroke="#3A4049" stroke-width="3" fill="none" opacity="0.6"/>
    <rect x="40" y="6" width="74" height="40" rx="16" fill="url(#body)"/>
    <rect x="46" y="10" width="60" height="9" rx="4" fill="#FFFFFF" opacity="0.28"/>
    <g stroke="#B97E00" stroke-width="1.4" opacity="0.55"><line x1="84" y1="14" x2="84" y2="38"/><line x1="92" y1="14" x2="92" y2="38"/><line x1="100" y1="14" x2="100" y2="38"/></g>
    <path d="M58 46 q6 10 22 9" stroke="#C98F00" stroke-width="2" fill="none" opacity="0.5"/>
    <rect x="30" y="14" width="16" height="24" rx="5" fill="#23272F"/>
    <rect x="6" y="18" width="26" height="16" rx="6" fill="url(#chuck)"/>
    <g stroke="#7E848E" stroke-width="0.8" opacity="0.7"><line x1="12" y1="20" x2="12" y2="32"/><line x1="18" y1="19" x2="18" y2="33"/><line x1="24" y1="20" x2="24" y2="32"/></g>
    <ellipse cx="7" cy="26" rx="3.5" ry="8" fill="#D7DBE1"/>
    <rect x="-16" y="24" width="24" height="4" rx="2" fill="#4A4F58"/>
    <polygon points="-16,24 -22,26 -16,28" fill="#3A3F47"/>
    <rect x="44" y="12" width="40" height="5" rx="2.5" fill="#FFFFFF" opacity="0.32"/>
  </g>

  <g filter="url(#vsh)" transform="translate(74,96)">
    <rect x="0" y="0" width="220" height="82" rx="20" fill="#FFFFFF"/>
    <text x="26" y="56" font-family="Poppins, Arial, sans-serif" font-size="40" font-weight="700" fill="#16181D">4,8</text>
    <text x="92" y="38" font-family="Arial, sans-serif" font-size="20" fill="#F5B600" letter-spacing="2">★★★★★</text>
    <text x="92" y="62" font-family="Arial, sans-serif" font-size="15" fill="#8A909A">+400 reseñas · Google</text>
  </g>
</svg>
